<svg width="1200" height="1200" viewBox="0 0 1200 1200" fill="none" xmlns="http://www.w3.org/2000/svg"><path fill="#F0F0F0" d="M0 0h1200v1200H0z"/><circle cx="600" cy="601" r="108" fill="#F9F9F9" stroke="#E0E0E0" stroke-width="4"/><path opacity=".4" d="M593.196 598.758a6.714 6.714 0 0 0-9.496 0l-18.073 18.073c.47 5.626 1.559 9.44 4.086 12.398a18.5 18.5 0 0 0 2.058 2.058c5.201 4.442 13.044 4.442 28.729 4.442s23.528 0 28.729-4.442a18.5 18.5 0 0 0 2.058-2.058c2.527-2.958 3.616-6.772 4.086-12.398l-10.656-10.656a6.715 6.715 0 0 0-9.496 0l-7.304 7.304z" fill="#E8E8E8"/><path d="m567.125 615.333 16.575-16.575a6.714 6.714 0 0 1 9.496 0l14.721 14.721m0 0 5.562 5.563m-5.562-5.563 7.304-7.304a6.715 6.715 0 0 1 9.496 0l9.158 9.158" stroke="#CDCDCD" stroke-width="5.5" stroke-linecap="round" stroke-linejoin="round"/><path d="M613.479 585.667a1.854 1.854 0 1 0 0-3.709m0 3.709a1.854 1.854 0 1 1 0-3.709m0 3.709v-3.709" stroke="#CDCDCD" stroke-width="8" stroke-linecap="round" stroke-linejoin="round"/><path d="M569.712 629.229c-4.442-5.201-4.442-13.044-4.442-28.729s0-23.528 4.442-28.729a18.6 18.6 0 0 1 2.057-2.058c5.202-4.442 13.044-4.442 28.73-4.442s23.528 0 28.729 4.442a18.5 18.5 0 0 1 2.057 2.058c4.443 5.201 4.443 13.044 4.443 28.729s0 23.528-4.443 28.729a18.5 18.5 0 0 1-2.057 2.058c-5.201 4.442-13.044 4.442-28.729 4.442-15.686 0-23.528 0-28.73-4.442a18.6 18.6 0 0 1-2.057-2.058" stroke="#CDCDCD" stroke-width="5.5" stroke-linecap="round" stroke-linejoin="round"/></svg>